<svg xmlns="http://www.w3.org/2000/svg" xml:space="preserve" fill-rule="evenodd" stroke-linejoin="round"
    stroke-miterlimit="2" clip-rule="evenodd" viewBox="0 0 215 59" width="6rem" height="auto">
    <path fill="var(--_accent)" d="M41.2 50H29.8L58.7 0H70L41.2 50Z"></path>
    <path fill="var(--_white)"
        d="M70 10h30L61.9 40.2h2.6l5.7 9.8H47l11.5-19.9L71.3 20h-7l5.8-10ZM32.5 35.7 0 10h47.3l-5.8 10H28.7l8.8 7-5 8.7Z">
    </path>
    <path fill="var(--_white)"
        d="M134 13.2v12.3h3.6V13.2h5V10H129v3.2h5ZM147.7 25.5v-6c0-2 .6-3.1 2.1-3.1 1.7 0 1.8 1.3 1.8 3v6h3.5v-7c0-3-.9-4.7-3.9-4.7-1.7 0-3 1-3.5 1.8V10H144v15.5h3.6ZM156.6 19.7c0 3.8 2.6 6 6.4 6a6 6 0 0 0 5-2.5l-2.8-1c-.4.5-1.2.8-2.3.8-1.3 0-2.6-.8-2.7-2.4h8.5c.3-4-2-7-5.9-7-3.3 0-6.2 2.4-6.2 6Zm6.3-3.4c1.4 0 2.5.7 2.5 2.2h-5.2c.2-1.6 1.4-2.2 2.7-2.2ZM172.6 25.5h3.9l2.3-11 2.4 11h4l3.7-15.5h-3.7L183 20.7 180.7 10H177l-2.3 10.7-2.1-10.7h-3.7l3.8 15.5ZM189.1 19.7c0 3.8 2.6 6 6.3 6a6 6 0 0 0 5-2.5l-2.7-1c-.5.5-1.3.8-2.4.8-1.3 0-2.5-.8-2.6-2.4h8.5c.2-4-2.1-7-5.9-7-3.4 0-6.2 2.4-6.2 6Zm6.3-3.4c1.4 0 2.5.7 2.5 2.2h-5.2c.2-1.6 1.4-2.2 2.7-2.2ZM202.9 10v15.5h3l.5-1.6c.7 1.3 2.3 1.8 3.5 1.8 3 0 5.1-2.3 5.1-6 0-3.8-2.1-6-5-6-1.3 0-2.9.6-3.6 1.9V10h-3.5Zm3.3 9.7c0-2.3 1.2-3.3 2.6-3.3 1.4 0 2.5 1.1 2.5 3.2 0 2.2-1.1 3.4-2.5 3.4s-2.6-1-2.6-3.3Z">
    </path>
    <path fill="var(--_white)"
        d="M109 50h6.5V38.8h13v-5.7h-13v-4.7h13v-5.7H109V50ZM130.5 39.8c0 7.3 5 10.7 10.8 10.7 5.5 0 10.7-3.4 10.7-10.7 0-7.3-5.2-10.6-10.7-10.6-5.7 0-10.8 3.3-10.8 10.6Zm10.8-5.8c2.4 0 4.3 1.5 4.3 5.8 0 4.2-1.9 5.9-4.3 5.9-2.6 0-4.5-1.7-4.5-6 0-4.2 2-5.7 4.5-5.7ZM161.2 50V39.8c0-3.3 1.7-4.6 4.7-4.6.6 0 1 0 1.7.2v-6.2c-3.1-.2-5.3 1-6.6 4.2l-1-3.7h-5V50h6.2ZM169.2 39.4c0 6.2 4.3 9.9 8.8 9.9 2.3 0 4.6-1 6.4-3.2v3.6c0 2.8-1.8 3.8-4.3 3.8-1.5 0-3-.4-3.8-1.9l-5 1.9c1.8 3.7 5.6 4.8 9 4.8 6.3 0 10.3-3 10.3-9.8V29.7h-5.4l-.8 2.8a8 8 0 0 0-6.6-3.4c-4.3 0-8.6 3.2-8.6 10.3Zm6.5-.3c0-3.6 2-5.1 4.5-5.1 2.4 0 4.4 1.3 4.4 5.2 0 4-2 5.2-4.4 5.2-2.5 0-4.5-1.7-4.5-5.3ZM193.7 39.7c0 6.7 4.5 10.8 11.1 10.8 3.3 0 6.8-1.5 8.9-4.6l-5-1.8c-.7 1-2.1 1.6-4 1.6-2.3 0-4.6-1.4-4.8-4.3h15c.5-7.1-3.7-12.2-10.3-12.2-6 0-11 4-11 10.5Zm11-6c2.4 0 4.4 1.4 4.5 4h-9.3c.4-2.7 2.5-4 4.8-4Z">
    </path>
</svg>